<?xml version="1.0" encoding="UTF-8"?><svg id="Layer_1" xmlns="http://www.w3.org/2000/svg" xmlns:xlink="http://www.w3.org/1999/xlink" viewBox="0 0 205.27 267.66"><defs><style>.cls-1{opacity:.42;}.cls-1,.cls-2,.cls-3,.cls-4,.cls-5,.cls-6{fill-rule:evenodd;}.cls-1,.cls-2,.cls-7,.cls-8,.cls-9,.cls-10,.cls-11,.cls-12,.cls-13,.cls-4{isolation:isolate;}.cls-1,.cls-14{fill:#c3dafd;}.cls-2,.cls-12,.cls-13{opacity:.24;}.cls-2,.cls-13{fill:#4b91f5;}.cls-15{fill:#ffe08b;}.cls-16{fill:#e6e9ec;}.cls-17,.cls-6{fill:#e7f8f3;}.cls-18,.cls-3,.cls-7,.cls-10,.cls-19{fill:#fff;}.cls-20{fill:#ffd152;}.cls-21{fill:#96bff9;}.cls-22{fill:#8495a3;}.cls-23{fill:#86b5f8;}.cls-24{fill:#c1cad1;}.cls-25{fill:#d8dde3;}.cls-26{fill:#c4efe1;}.cls-27{fill:#1a70ec;}.cls-28,.cls-5{fill:#13bf87;}.cls-29{fill:#0e6cf3;}.cls-30{fill:#1a5ade;}.cls-31{fill:#9ba9b4;}.cls-32{fill:#629ff6;}.cls-33{fill:#476175;}.cls-34{fill:#263dbb;}.cls-35{fill:#4b91f4;}.cls-36{fill:#4ecfa5;}.cls-3{stroke:#c1cad1;stroke-width:.26px;}.cls-3,.cls-19{stroke-miterlimit:10;}.cls-7,.cls-8,.cls-9,.cls-37{opacity:.34;}.cls-8{fill:#22445f;}.cls-9{fill:#d1bff8;}.cls-10{opacity:.64;}.cls-11{fill:#94a3af;opacity:.53;}.cls-12{fill:#0067f7;}.cls-4{fill:#e0e4e8;opacity:.9;}.cls-19{stroke:#e6e9ec;stroke-width:.41px;}.cls-38{fill:url(#linear-gradient);stroke:#0e6cf1;stroke-linejoin:round;stroke-width:.14px;}</style><linearGradient id="linear-gradient" x1="114.6" y1="132.42" x2="141.62" y2="179.23" gradientTransform="translate(0 258) scale(1 -1)" gradientUnits="userSpaceOnUse"><stop offset="0" stop-color="#e6f0fd"/><stop offset="1" stop-color="#fff"/></linearGradient></defs><path class="cls-9" d="m109.6,267.23L7.49,207.78c-2.99-1.72-2.99-6.09.12-7.82l81.41-45.19c1.84-1.04,4.02-1.04,5.86,0l98.08,55.31c2.99,1.73,3.1,5.98.11,7.82l-80.14,49.33c-1.04.58-2.3.58-3.33,0Z"/><path class="cls-2" d="m91.55,239.76L1,205.85c-1.09-.42-1.35-1.9-.47-2.66l31.49-28.18c.96-.88,2.34-1.12,3.63-.74l90.38,32.93c1.4.46,1.83,2.32.71,3.43l-29.01,27.85c-1.66,1.51-4.11,2.04-6.17,1.29Z"/><path class="cls-22" d="m124.21,202.68l1.17,5.48-31.9,25.31-.03-1.32,30.76-29.48Z"/><path class="cls-22" d="m.86,199.88l.46,3.17,89.21,30.9s.43.13,1.22-.01c.79-.14,1.16-.31,1.9-.74-.1-.59-.21-1.18-.21-1.18,0,0-1.15.4-2.27.4-1.12,0-1.35-.17-2.97-.7-14.71-5.13-87.34-31.84-87.34-31.84Z"/><path class="cls-4" d="m89.3,232.18L1.75,200.88c-1.09-.42-1.31-1.7-.43-2.46l30.63-26.71c.96-.88,2.24-1.11,3.53-.72l87.4,30.41c1.4.46,1.71,2.24.67,3.23l-28.27,26.3c-1.57,1.49-3.93,1.91-5.97,1.25Z"/><path class="cls-8" d="m32.56,186.72l-5.72-1.94-.16.23,5.94,2,3.43-3.04-.21-.06-3.26,2.81Z"/><path class="cls-8" d="m36.87,182.92l-5.72-1.94-.18.13,5.94,2,3.44-2.94-.22-.06-3.26,2.81Z"/><path class="cls-8" d="m28.06,190.56l-5.72-1.94-.18.13,5.95,2.1,3.42-3.04-.21-.06-3.26,2.81Z"/><path class="cls-8" d="m23.31,194.75l-5.72-1.94-.18.13,5.95,2.1,3.42-3.04-.21-.06-3.26,2.81Z"/><path class="cls-8" d="m18.81,198.59l-5.72-1.94-.18.13,5.95,2.1,3.42-3.04-.21-.06-3.26,2.81Z"/><path class="cls-8" d="m39.9,189.19l-5.72-1.94-.18.13,5.95,2.1,3.44-2.94-.21-.06-3.28,2.71Z"/><path class="cls-8" d="m41.63,189.8l-.18.13,5.95,2.1,3.44-2.94-.21-.06-3.26,2.81-5.74-2.04Z"/><path class="cls-8" d="m48.99,192.36l-.18.13,5.95,2.1,3.42-3.04-.21-.06-3.26,2.81-5.72-1.94Z"/><path class="cls-8" d="m56.34,194.93l-.18.13,5.94,2,3.44-2.94-.31-.05-3.26,2.81-5.62-1.96Z"/><path class="cls-8" d="m63.7,197.49l-.18.13,5.95,2.1,3.44-2.94-.21-.06-3.26,2.81-5.74-2.04Z"/><path class="cls-8" d="m71.04,199.95l-.18.13,5.95,2.1,3.44-2.94-.21-.06-3.26,2.81-5.74-2.04Z"/><path class="cls-8" d="m78.49,202.5l-.18.13,5.95,2.1,3.42-3.04-.21-.06-3.26,2.81-5.72-1.94Z"/><path class="cls-8" d="m85.85,205.06l-.18.13,5.94,2,3.44-2.94-.21-.06-3.26,2.81-5.72-1.94Z"/><path class="cls-8" d="m98.92,209.57l-5.72-1.94-.18.13,5.95,2.1,3.44-2.94-.21-.06-3.28,2.71Z"/><path class="cls-8" d="m106.28,212.13l-5.72-1.94-.18.13,5.95,2.1,3.44-2.94-.21-.06-3.28,2.71Z"/><path class="cls-8" d="m44.22,185.48l-5.72-1.94-.18.13,5.94,2,3.44-2.94-.21-.06-3.26,2.81Z"/><path class="cls-8" d="m45.95,186.09l-.18.13,5.95,2.1,3.43-3.04-.22-.06-3.26,2.81-5.72-1.94Z"/><path class="cls-8" d="m53.31,188.66l-.18.13,5.95,2.1,3.43-3.04-.21-.06-3.26,2.81-5.72-1.94Z"/><path class="cls-8" d="m60.65,191.12l-.18.13,5.94,2,3.44-2.94-.21-.06-3.26,2.81-5.72-1.94Z"/><path class="cls-8" d="m68,193.68l-.18.13,5.94,2,3.44-2.94-.21-.06-3.26,2.81-5.72-1.94Z"/><path class="cls-8" d="m75.46,196.23l-.18.13,5.95,2.1,3.43-3.04-.21-.06-3.26,2.81-5.72-1.94Z"/><path class="cls-8" d="m82.81,198.79l-.18.13,5.95,2.1,3.42-3.04-.21-.06-3.26,2.81-5.72-1.94Z"/><path class="cls-8" d="m90.17,201.36l-.18.13,5.94,2,3.44-2.94-.21-.06-3.26,2.81-5.72-1.94Z"/><path class="cls-8" d="m103.25,205.86l-5.72-1.94-.18.13,5.95,2.1,3.42-3.04-.21-.06-3.26,2.81Z"/><path class="cls-8" d="m113.85,205.52l-3.26,2.81-5.72-1.94-.18.13,5.95,2.1,3.43-3.04-.21-.06Z"/><path class="cls-8" d="m35.41,193.13l-5.72-1.94-.18.13,5.95,2.1,3.43-3.04-.21-.06-3.26,2.81Z"/><path class="cls-8" d="m37.15,193.73l-.18.13,5.94,2,3.44-2.94-.21-.06-3.26,2.81-5.72-1.94Z"/><path class="cls-8" d="m44.5,196.3l-.18.13,5.95,2.1,3.42-3.04-.21-.06-3.26,2.81-5.72-1.94Z"/><path class="cls-8" d="m51.84,198.76l-.18.13,5.95,2.1,3.43-3.04-.21-.06-3.26,2.81-5.72-1.94Z"/><path class="cls-8" d="m59.2,201.33l-.18.13,5.95,2.1,3.43-3.04-.21-.06-3.26,2.81-5.72-1.94Z"/><path class="cls-8" d="m66.55,203.89l-.18.13,5.95,2.1,3.44-2.94-.21-.06-3.26,2.81-5.74-2.04Z"/><path class="cls-8" d="m74.01,206.44l-.18.13,5.95,2.1,3.43-3.04-.21-.06-3.26,2.81-5.72-1.94Z"/><path class="cls-8" d="m81.36,209l-.18.13,5.95,2.1,3.43-3.04-.22-.06-3.26,2.81-5.72-1.94Z"/><path class="cls-8" d="m94.44,213.5l-5.72-1.94-.16.23,5.94,2,3.42-3.04-.21-.06-3.26,2.81Z"/><path class="cls-8" d="m101.78,215.97l-5.72-1.94-.18.13,5.95,2.1,3.44-2.94-.21-.06-3.28,2.71Z"/><path class="cls-8" d="m30.67,197.31l-5.72-1.94-.18.13,5.95,2.1,3.43-3.04-.21-.06-3.26,2.81Z"/><path class="cls-8" d="m32.38,197.82l-.18.13,5.95,2.1,3.44-2.94-.21-.06-3.26,2.81-5.74-2.04Z"/><path class="cls-8" d="m39.74,200.39l-.18.13,5.95,2.1,3.44-2.94-.22-.06-3.26,2.81-5.74-2.04Z"/><path class="cls-8" d="m47.09,202.95l-.18.13,5.95,2.1,3.43-3.04-.21-.06-3.26,2.81-5.72-1.94Z"/><path class="cls-8" d="m54.45,205.51l-.16.23,5.94,2,3.43-3.04-.21-.06-3.26,2.81-5.72-1.94Z"/><path class="cls-8" d="m61.9,208.06l-.18.13,5.95,2.1,3.44-2.94-.21-.06-3.26,2.81-5.74-2.04Z"/><path class="cls-8" d="m69.24,210.52l-.18.13,5.96,2.1,3.44-2.94-.21-.06-3.26,2.81-5.74-2.04Z"/><path class="cls-8" d="m76.6,213.09l-.18.13,5.95,2.1,3.43-3.04-.21-.06-3.26,2.81-5.72-1.94Z"/><path class="cls-8" d="m89.68,217.59l-5.72-1.94-.18.13,5.94,2,3.44-2.94-.21-.06-3.26,2.81Z"/><path class="cls-8" d="m97.03,220.15l-5.72-1.94-.18.13,5.94,2,3.44-2.94-.22-.06-3.26,2.81Z"/><path class="cls-8" d="m26.16,201.15l-5.72-1.94-.18.13,5.95,2.1,3.43-3.04-.21-.06-3.26,2.81Z"/><path class="cls-8" d="m81.1,216.15l-3.26,2.81-5.94-2-1.4-.46-5.95-2.1-1.4-.46-5.95-2.1-1.4-.47-5.95-2.1-1.4-.46-5.94-2-1.4-.46-5.95-2.1-7.14-2.5-.18.13,7.36,2.56,5.94,2,1.4.46,5.95,2.1,1.4.46,5.96,2.1,1.4.46,5.95,2.1,1.4.46,5.94,2,1.4.47,5.95,2.1,3.42-3.04-.2.03Z"/><path class="cls-8" d="m85.19,221.53l-5.72-1.94-.18.13,5.96,2.1,3.43-3.04-.21-.06-3.26,2.81Z"/><path class="cls-8" d="m92.55,224.09l-5.72-1.94-.16.23,5.94,2,3.43-3.04-.21-.06-3.26,2.81Z"/><g class="cls-37"><path class="cls-7" d="m35.82,183.91l-5.72-1.94-3.26,2.81,5.72,1.94,3.26-2.81Z"/><path class="cls-7" d="m43.18,186.48l-5.72-1.94-3.26,2.81,5.72,1.94,3.26-2.81Z"/><path class="cls-7" d="m41.24,189.87l5.72,1.94,3.26-2.81-5.72-1.94-3.26,2.81Z"/><path class="cls-7" d="m48.59,192.43l5.72,1.94,3.26-2.81-5.72-1.94-3.26,2.81Z"/><path class="cls-7" d="m56.05,194.98l5.72,1.94,3.26-2.81-5.72-1.94-3.26,2.81Z"/><path class="cls-7" d="m63.4,197.54l5.72,1.94,3.26-2.81-5.72-1.94-3.26,2.81Z"/><path class="cls-7" d="m70.74,200.01l5.72,1.94,3.26-2.81-5.72-1.94-3.26,2.81Z"/><path class="cls-7" d="m78.1,202.57l5.72,1.94,3.26-2.81-5.72-1.94-3.26,2.81Z"/><path class="cls-7" d="m85.55,205.12l5.72,1.94,3.26-2.81-5.72-1.94-3.26,2.81Z"/><path class="cls-7" d="m101.79,206.83l-5.72-1.94-3.26,2.81,5.72,1.94,3.26-2.81Z"/><path class="cls-7" d="m109.15,209.39l-5.72-1.94-3.26,2.81,5.72,1.94,3.26-2.81Z"/><path class="cls-7" d="m39.73,180.18l-5.72-1.94-3.26,2.81,5.72,1.94,3.26-2.81Z"/><path class="cls-7" d="m47.09,182.74l-5.72-1.94-3.26,2.81,5.72,1.94,3.26-2.81Z"/><path class="cls-7" d="m45.56,186.16l5.72,1.94,3.26-2.81-5.72-1.94-3.26,2.81Z"/><path class="cls-7" d="m52.92,188.73l5.72,1.94,3.26-2.81-5.72-1.94-3.26,2.81Z"/><path class="cls-7" d="m60.35,191.17l5.72,1.94,3.26-2.81-5.72-1.94-3.26,2.81Z"/><path class="cls-7" d="m67.71,193.74l5.72,1.94,3.26-2.81-5.72-1.94-3.26,2.81Z"/><path class="cls-7" d="m75.06,196.3l5.72,1.94,3.26-2.81-5.72-1.94-3.26,2.81Z"/><path class="cls-7" d="m82.42,198.86l5.72,1.94,3.26-2.81-5.72-1.94-3.26,2.81Z"/><path class="cls-7" d="m89.87,201.41l5.72,1.94,3.26-2.81-5.72-1.94-3.26,2.81Z"/><path class="cls-7" d="m106.1,203.02l-5.72-1.94-3.26,2.81,5.72,1.94,3.26-2.81Z"/><path class="cls-7" d="m113.45,205.59l-5.72-1.94-3.26,2.81,5.72,1.94,3.26-2.81Z"/><path class="cls-7" d="m31.32,187.75l-5.72-1.94-3.26,2.81,5.72,1.94,3.26-2.81Z"/><path class="cls-7" d="m38.68,190.32l-5.72-1.94-3.26,2.81,5.72,1.94,3.26-2.81Z"/><path class="cls-7" d="m37.15,193.73l5.72,1.94,3.26-2.81-5.72-1.94-3.26,2.81Z"/><path class="cls-7" d="m44.5,196.3l5.72,1.94,3.26-2.81-5.72-1.94-3.26,2.81Z"/><path class="cls-7" d="m51.84,198.76l5.72,1.94,3.26-2.81-5.72-1.94-3.26,2.81Z"/><path class="cls-7" d="m59.2,201.33l5.72,1.94,3.26-2.81-5.72-1.94-3.26,2.81Z"/><path class="cls-7" d="m66.55,203.89l5.72,1.94,3.26-2.81-5.72-1.94-3.26,2.81Z"/><path class="cls-7" d="m74.01,206.44l5.72,1.94,3.26-2.81-5.72-1.94-3.26,2.81Z"/><path class="cls-7" d="m81.36,209l5.72,1.94,3.26-2.81-5.72-1.94-3.26,2.81Z"/><path class="cls-7" d="m97.7,210.69l-5.72-1.94-3.26,2.81,5.72,1.94,3.26-2.81Z"/><path class="cls-7" d="m105.04,213.16l-5.72-1.94-3.26,2.81,5.72,1.94,3.26-2.81Z"/><path class="cls-7" d="m26.57,191.94l-5.72-1.94-3.26,2.81,5.72,1.94,3.26-2.81Z"/><path class="cls-7" d="m33.91,194.4l-5.72-1.94-3.26,2.81,5.72,1.94,3.26-2.81Z"/><path class="cls-7" d="m32.38,197.82l5.72,1.94,3.26-2.81-5.72-1.94-3.26,2.81Z"/><path class="cls-7" d="m39.74,200.39l5.72,1.94,3.26-2.81-5.72-1.94-3.26,2.81Z"/><path class="cls-7" d="m47.09,202.95l5.72,1.94,3.26-2.81-5.72-1.94-3.26,2.81Z"/><path class="cls-7" d="m54.45,205.51l5.72,1.94,3.26-2.81-5.72-1.94-3.26,2.81Z"/><path class="cls-7" d="m61.9,208.06l5.72,1.94,3.26-2.81-5.72-1.94-3.26,2.81Z"/><path class="cls-7" d="m69.24,210.52l5.72,1.94,3.26-2.81-5.72-1.94-3.26,2.81Z"/><path class="cls-7" d="m76.6,213.09l5.72,1.94,3.26-2.81-5.72-1.94-3.26,2.81Z"/><path class="cls-7" d="m92.94,214.78l-5.72-1.94-3.26,2.81,5.72,1.94,3.26-2.81Z"/><path class="cls-7" d="m100.29,217.35l-5.72-1.94-3.26,2.81,5.72,1.94,3.26-2.81Z"/><path class="cls-7" d="m22.07,195.78l-5.72-1.94-3.26,2.81,5.72,1.94,3.26-2.81Z"/><path class="cls-7" d="m29.43,198.34l-5.72-1.94-3.26,2.81,5.72,1.94,3.26-2.81Z"/><path class="cls-7" d="m40.97,206.26l1.4.46,5.94,2,1.4.46,5.95,2.1,1.4.46,5.95,2.1,1.4.46,5.96,2.1,1.4.46,5.94,2,3.26-2.81-5.72-1.94-1.4-.46-5.96-2.1-1.4-.46-5.94-2-1.4-.46-5.94-2-1.4-.46-5.94-2-1.4-.46-5.96-2.1-7.36-2.56-3.26,2.81,7.14,2.5,5.92,1.9Z"/><path class="cls-7" d="m88.45,218.72l-5.72-1.94-3.26,2.81,5.72,1.94,3.26-2.81Z"/><path class="cls-7" d="m95.79,221.18l-5.72-1.94-3.26,2.81,5.72,1.94,3.26-2.81Z"/></g><path class="cls-10" d="m35.82,183.91l-5.72-1.94-3.26,2.81,5.72,1.94,3.26-2.81Z"/><path class="cls-10" d="m43.18,186.48l-5.72-1.94-3.26,2.81,5.72,1.94,3.26-2.81Z"/><path class="cls-10" d="m41.24,189.87l5.72,1.94,3.26-2.81-5.72-1.94-3.26,2.81Z"/><path class="cls-10" d="m48.59,192.43l5.72,1.94,3.26-2.81-5.72-1.94-3.26,2.81Z"/><path class="cls-10" d="m56.05,194.98l5.72,1.94,3.26-2.81-5.72-1.94-3.26,2.81Z"/><path class="cls-10" d="m63.4,197.54l5.72,1.94,3.26-2.81-5.72-1.94-3.26,2.81Z"/><path class="cls-10" d="m70.74,200.01l5.72,1.94,3.26-2.81-5.72-1.94-3.26,2.81Z"/><path class="cls-10" d="m78.1,202.57l5.72,1.94,3.26-2.81-5.72-1.94-3.26,2.81Z"/><path class="cls-10" d="m85.55,205.12l5.72,1.94,3.26-2.81-5.72-1.94-3.26,2.81Z"/><path class="cls-10" d="m101.79,206.83l-5.72-1.94-3.26,2.81,5.72,1.94,3.26-2.81Z"/><path class="cls-10" d="m109.15,209.39l-5.72-1.94-3.26,2.81,5.72,1.94,3.26-2.81Z"/><path class="cls-10" d="m39.73,180.18l-5.72-1.94-3.26,2.81,5.72,1.94,3.26-2.81Z"/><path class="cls-10" d="m47.09,182.74l-5.72-1.94-3.26,2.81,5.72,1.94,3.26-2.81Z"/><path class="cls-10" d="m45.56,186.16l5.72,1.94,3.26-2.81-5.72-1.94-3.26,2.81Z"/><path class="cls-10" d="m52.92,188.73l5.72,1.94,3.26-2.81-5.72-1.94-3.26,2.81Z"/><path class="cls-10" d="m60.35,191.17l5.72,1.94,3.26-2.81-5.72-1.94-3.26,2.81Z"/><path class="cls-10" d="m67.71,193.74l5.72,1.94,3.26-2.81-5.72-1.94-3.26,2.81Z"/><path class="cls-10" d="m75.06,196.3l5.72,1.94,3.26-2.81-5.72-1.94-3.26,2.81Z"/><path class="cls-10" d="m82.42,198.86l5.72,1.94,3.26-2.81-5.72-1.94-3.26,2.81Z"/><path class="cls-10" d="m89.87,201.41l5.72,1.94,3.26-2.81-5.72-1.94-3.26,2.81Z"/><path class="cls-10" d="m106.1,203.02l-5.72-1.94-3.26,2.81,5.72,1.94,3.26-2.81Z"/><path class="cls-10" d="m113.45,205.59l-5.72-1.94-3.26,2.81,5.72,1.94,3.26-2.81Z"/><path class="cls-10" d="m31.32,187.75l-5.72-1.94-3.26,2.81,5.72,1.94,3.26-2.81Z"/><path class="cls-10" d="m38.68,190.32l-5.72-1.94-3.26,2.81,5.72,1.94,3.26-2.81Z"/><path class="cls-10" d="m37.15,193.73l5.72,1.94,3.26-2.81-5.72-1.94-3.26,2.81Z"/><path class="cls-10" d="m44.5,196.3l5.72,1.94,3.26-2.81-5.72-1.94-3.26,2.81Z"/><path class="cls-10" d="m51.84,198.76l5.72,1.94,3.26-2.81-5.72-1.94-3.26,2.81Z"/><path class="cls-10" d="m59.2,201.33l5.72,1.94,3.26-2.81-5.72-1.94-3.26,2.81Z"/><path class="cls-10" d="m66.55,203.89l5.72,1.94,3.26-2.81-5.72-1.94-3.26,2.81Z"/><path class="cls-10" d="m74.01,206.44l5.72,1.94,3.26-2.81-5.72-1.94-3.26,2.81Z"/><path class="cls-10" d="m81.36,209l5.72,1.94,3.26-2.81-5.72-1.94-3.26,2.81Z"/><path class="cls-10" d="m97.7,210.69l-5.72-1.94-3.26,2.81,5.72,1.94,3.26-2.81Z"/><path class="cls-10" d="m105.04,213.16l-5.72-1.94-3.26,2.81,5.72,1.94,3.26-2.81Z"/><path class="cls-10" d="m26.57,191.94l-5.72-1.94-3.26,2.81,5.72,1.94,3.26-2.81Z"/><path class="cls-10" d="m33.91,194.4l-5.72-1.94-3.26,2.81,5.72,1.94,3.26-2.81Z"/><path class="cls-10" d="m32.38,197.82l5.72,1.94,3.26-2.81-5.72-1.94-3.26,2.81Z"/><path class="cls-10" d="m39.74,200.39l5.72,1.94,3.26-2.81-5.72-1.94-3.26,2.81Z"/><path class="cls-10" d="m47.09,202.95l5.72,1.94,3.26-2.81-5.72-1.94-3.26,2.81Z"/><path class="cls-10" d="m54.45,205.51l5.72,1.94,3.26-2.81-5.72-1.94-3.26,2.81Z"/><path class="cls-10" d="m61.9,208.06l5.72,1.94,3.26-2.81-5.72-1.94-3.26,2.81Z"/><path class="cls-10" d="m69.24,210.52l5.72,1.94,3.26-2.81-5.72-1.94-3.26,2.81Z"/><path class="cls-10" d="m76.6,213.09l5.72,1.94,3.26-2.81-5.72-1.94-3.26,2.81Z"/><path class="cls-10" d="m92.94,214.78l-5.72-1.94-3.26,2.81,5.72,1.94,3.26-2.81Z"/><path class="cls-10" d="m100.29,217.35l-5.72-1.94-3.26,2.81,5.72,1.94,3.26-2.81Z"/><path class="cls-10" d="m22.07,195.78l-5.72-1.94-3.26,2.81,5.72,1.94,3.26-2.81Z"/><path class="cls-10" d="m29.43,198.34l-5.72-1.94-3.26,2.81,5.72,1.94,3.26-2.81Z"/><path class="cls-10" d="m40.97,206.26l1.4.46,5.94,2,1.4.46,5.95,2.1,1.4.46,5.95,2.1,1.4.46,5.96,2.1,1.4.46,5.94,2,3.26-2.81-5.72-1.94-1.4-.46-5.96-2.1-1.4-.46-5.94-2-1.4-.46-5.94-2-1.4-.46-5.94-2-1.4-.46-5.96-2.1-7.36-2.56-3.26,2.81,7.14,2.5,5.92,1.9Z"/><path class="cls-10" d="m88.45,218.72l-5.72-1.94-3.26,2.81,5.72,1.94,3.26-2.81Z"/><path class="cls-10" d="m95.79,221.18l-5.72-1.94-3.26,2.81,5.72,1.94,3.26-2.81Z"/><path class="cls-16" d="m115.3,151.4l-1.5,12.5s.4,1-1.3,2.1c-1.7,1.1-13,7.6-13,7.6l-1.2,1c-.4.3-.4.9.1,1.2l25,14.2c1.1.6,2.4.6,3.5,0l15-8.4.6-19.9-.3-.1-26.1-14-.8,3.8Z"/><path class="cls-22" d="m97.9,175.4l.1,1.7,25.3,15.6.9-2.2-4-2.1-22.3-13Z"/><path class="cls-22" d="m123.1,189.8s.9.4,2.1.5c1.2.1,2.2-.6,2.2-.6l.1,2.5s-1.4.9-1.9,1c-.5.1-1.2-.1-1.7-.3-.6-.2-1.6-.9-1.6-.9l.3-2.5.5.3Z"/><path class="cls-22" d="m142.2,163.7l-.6,1.5-.3,16.1c0,.3-.2.6-.5.8l-14.2,7.9v2.5l14.6-8.1c.2-.1.3-.3.3-.6v-1.7l.7-18.4Z"/><path class="cls-11" d="m116.6,150c-.5-.3-1.1,0-1.1.6l-1.6,13.7c0,.1-.2.6-.5.9-.4.4-.9.7-.8.7l27.4,16.2c.2.1.5.1.8,0l.4-.2c.2-.1.4-.4.4-.6l.4-16.9c0-.3-.1-.6-.4-.7l-25-13.7Z"/><path class="cls-13" d="m121.58,241.14c-.9-2.7,0-5.7,4.8-10.2,2.3-2.1,5.8-4.4,8-5.3,4-1.6,8.6-2.7,13.9-.9.5.2,3.2,1.6,3.7,2.7,1.2,2.5.3,5.7-3.2,7.7-3.4,1.9-14.5,8.6-14.5,8.6-3.3,1.7-11.5,1.2-12.7-2.6Z"/><path class="cls-18" d="m122.88,238.34c-.8-2.5.1-5.3,4.8-9.5,2.2-2,5.5-4.1,7.7-5,3.8-1.6,8.2-2.6,13.2-1.1.5.1,3,1.5,3.4,2.4,1.1,2.3.2,5.2-3.2,7.2-3.2,1.8-13.9,8.2-13.9,8.2-3.3,1.5-11,1.2-12-2.2Z"/><path class="cls-24" d="m130.38,241.14s3.7-1.1,6.4-2.8c2.7-1.7,7.5-4.5,10-6,1.2-.8,4.8-3.4,4.8-3.4l.6-.6s-.1.3-.1.4c-.2.6-.5,1.6-1.3,2.2-.7.5-1.7,1.2-2.2,1.5-.3.2-3.8,2.3-3.8,2.3l-8.5,5s-2.4,1.3-3.7,1.5c-1.4.1-2.3.2-2.3.2l.1-.3Z"/><path class="cls-16" d="m151.68,228.24s-5.4-1-9.2.6c-2.6,1.1-4.7,2.7-6,4.1-1.3,1.5-3.2,3.9-4.1,5.4-.8,1.5-1,2.5-1,2.5l3.4-1.3s9.8-5.6,12.9-7.8c1.9-1.3,3.9-2.9,3.9-2.9l.5-.5-.4-.1Z"/><path class="cls-24" d="m203,79.6s1.3.6,2,3c.6,2.1,0,6.7,0,6.7l-6,2.1s0-4-.3-4.8c-.3-.8-.7-2-1.3-2.6-.6-.7-.3-.9-1.5-1.8-1.3-.9,1.1,1,1.1,1l6-3.6Z"/><path class="cls-25" d="m55.3,2.9l4.2-2.6c.6-.4,1.4-.4,2.1,0l141.3,79c.1.1.1.2,0,.3l-5.4,3.3h-.2L55.3,3.2c-.1-.1-.1-.3,0-.3Z"/><path class="cls-24" d="m199.4,84.9l1.7-.9c.2-.1,1.9-1.1,2.9-1.7.4-.2.9.1.9.5l.2,107.7c0,.2-.1.3-.2.4l-5.6,3.5-.3-109.1.4-.4Z"/><path class="cls-31" d="m52.3,6.2v.5l.1,105.6c0,2.7,1.5,5.2,3.8,6.4l137.5,75.5c3.7,2.2,5.7,2.7,5.8-3.5v-.2l-.6-102.3c-.1-4-4.4-7.5-7.9-9.5L56,3.6c-1.3-.6-3.4.8-3.7,2.6Z"/><path class="cls-19" d="m192.4,92.4l.1,89.3c.1,2.8-1.5,2.9-4,1.5L61.5,112.4c-1.8-1-2.9-2.9-2.9-4.9V17.7c-.2-1.8,1.8-2.4,2.6-2l128.8,70.5c1.6,1,2.4,4.4,2.4,6.2Z"/><path class="cls-16" d="m59,22.7l-.1.2,133,73.1.1-.2L59,22.7Z"/><path class="cls-27" d="m66.8,35.1l-1.6,1.3,1.1.7,1-.8-.5-1.2Z"/><path class="cls-27" d="m70.6,38.5l-1.8-3.4,1.8-1.3-.7-1.3-1.7,1.4-1.8-3.5-1.2-.7,4.7,9.3.7-.5Z"/><path class="cls-34" d="m68.6,31.7l-1,.7.6,1.2,1.5-1.2-1.1-.7Z"/><path class="cls-34" d="m68.6,38.3l1.2.7-4.7-9.3-.7.5,1.8,3.4-1.8,1.3.7,1.3,1.8-1.4,1.7,3.5Z"/><path class="cls-27" d="m72.2,39.1c-.3-.2-.5-.4-.8-.6s-.5-.5-.6-.8c-.2-.3-.3-.6-.4-.9-.1-.5-.2-.9-.1-1.2.1-.3.2-.6.5-.7.2-.1.4-.1.6-.1s.5.1.8.3c.3.2.5.4.8.6.2.2.5.5.6.8.2.3.3.6.4.9.1.3.1.6.1.9s-.1.5-.1.7c-.2.4-.6.5-1,.5-.2-.1-.5-.2-.8-.4Zm-1.2-2.8c0,.2,0,.4.1.6.1.2.2.4.3.6s.3.4.4.5c.2.2.3.3.5.4.2.1.3.2.5.2s.3,0,.4-.1c.1-.1.2-.2.3-.3.1-.1.1-.3.1-.5s0-.4-.1-.6c-.1-.2-.2-.4-.3-.6-.1-.2-.3-.4-.4-.6-.2-.2-.3-.3-.5-.4-.2-.1-.3-.2-.5-.2s-.3,0-.4.1c-.1.1-.2.2-.3.3-.1.3-.1.5-.1.6Z"/><path class="cls-27" d="m80.5,43.9l-.7-.4v-2.2c0-.4-.1-.7-.2-1-.1-.1-.2-.3-.3-.4-.1-.1-.2-.2-.3-.3-.3-.2-.5-.2-.7-.1-.2.1-.4.2-.5.5v2.4l-.7-.4v-2.2c0-.4-.1-.8-.2-1-.1-.1-.2-.3-.3-.4-.1-.1-.2-.2-.3-.3-.3-.2-.5-.2-.7-.1s-.4.2-.5.5v2.3l-.7-.4v-3.9l.6.3v.8c.1-.2.4-.3.6-.3.3,0,.6.1.9.3.1.1.3.2.4.3.1.1.3.3.4.4.2.3.3.6.3.9.4-.4.9-.5,1.5-.1.2.1.4.3.6.5.2.2.3.4.4.6.1.2.2.4.2.6s.1.5.1.7l.1,2.4Z"/><path class="cls-27" d="m82.9,45.3c-.3-.2-.6-.4-.8-.6s-.5-.5-.6-.8c-.2-.3-.3-.6-.4-.9-.2-.6-.2-1.2,0-1.6.1-.3.4-.5.7-.5s.7.1,1.1.3.8.6,1.1,1c.3.4.6.9.7,1.3.1.3.1.6.1.8v.3l-3.2-1.9c0,.2.1.4.1.6.1.2.2.4.3.6.1.2.3.4.4.5.2.2.3.3.5.4.1.1.2.1.3.2.1,0,.2.1.3.1h.3c.1,0,.1-.1.2-.2l.6.5c-.1.1-.2.2-.3.2-.1.1-.2.1-.4.1s-.3,0-.5-.1c-.1-.1-.3-.1-.5-.3Zm1.4-1.5c0-.4-.2-.8-.4-1.2-.2-.3-.4-.5-.7-.7-.3-.2-.5-.3-.7-.4h-.4c-.1,0-.2.1-.3.2-.1.1-.1.3-.1.4l2.6,1.7Z"/><path class="cls-27" d="m87.4,47.7h-.2q-.1,0-.2-.1c-.1,0-.2-.1-.3-.1s-.2-.1-.3-.2c-.2-.1-.4-.3-.6-.6-.1-.1-.2-.3-.2-.4s-.1-.3-.1-.4v-2.6l-.5-.3v-.5l.5.3v-1.3l.7.4v1.3l.9.5v.5l-.9-.4v2.6c0,.1.1.1.1.2.1.1.2.2.3.3.1.1.2.1.3.1h.2l.3.7Z"/><path class="cls-27" d="m89.8,46c-.3-.2-.6-.3-.9-.2-.2,0-.4.1-.5.4v2.4l-.7-.4v-3.9l.6.4v.9c.1-.2.3-.3.5-.3s.4,0,.7.1l.1.1s.1,0,.1.1v.4h.1Z"/><path class="cls-27" d="m90.9,50.7q.1.1.2.1c.1,0,.1.1.2.1q.1.1.2.1t.1-.1c.1-.1.2-.3.2-.4l-1.6-4.9.7.4,1.3,4.1,1.2-2.6.6.4-1.8,3.6c-.1.1-.2.2-.3.3-.2,0-.4,0-.7-.2-.1,0-.1-.1-.1-.1l-.2-.1v-.7Z"/><path class="cls-38" d="m174.6,159v.8h-.1v.3l-.3-.2v.1l-.7-.4v-.1l-.7-.4v.1l-.7-.4v-.1l-.7-.4v.1l-.7-.4v-.1l-.7-.4v.1l-.7-.4v-.1l-.7-.4v.1l-.7-.4v-.1l-.7-.4v.1l-.7-.4v-.1l-.7-.4v.1l-.6-.4v-.1l-.7-.4v.1l-.7-.4v-.1l-.7-.4v.1l-.7-.4v-.1l-.7-.4v.1l-.7-.4v-.1l-.7-.4v.1l-.7-.4v-.1l-.7-.4v.1l-.7-.4v-.1l-.7-.4v.1l-.7-.4v-.1l-.7-.4v.1l-.7-.4v-.1l-.7-.4v.1l-.7-.4v-.1l-.7-.4v.1l-.7-.4v-.1l-.7-.4v.1l-.7-.4v-.1l-.7-.4v.1l-.7-.4v-.2l-.7-.4v.1l-.7-.4v-.1l-.7-.4v.1l-.7-.4v-.1l-.7-.4v.1l-.7-.4v-.1l-.7-.4v.1l-.7-.4v-.1l-.7-.4v.1l-.7-.4v-.1l-.7-.4v.1l-.7-.4v-.1l-.7-.4v.1l-.7-.4v-.1l-.7-.4v.1l-.7-.4v-.1l-.7-.4v.1l-.7-.4v-.1l-.7-.4v.1l-.7-.4v-.1l-.7-.4v.1l-.7-.4v-.1l-.7-.4v.1l-.7-.4v-.1l-.7-.4v.1l-.7-.4v-.1l-.7-.4v.1l-.7-.4v-.1l-.7-.4v.1l-.7-.4v-.1l-.7-.4v.1l-.7-.4v-.1l-.7-.4v.1l-.7-.4v-.1l-.7-.4v.1l-.7-.4v-.1l-.7-.4v.1l-.7-.4v-.1l-.7-.4v.1l-.7-.4v-.1l-.7-.4v.1l-.7-.4v-.1l-.7-.4v.1l-.7-.4v-.1l-.7-.4v.1l-.7-.4v-.1l-.7-.4v.1l-.7-.4v-.1l-.7-.4v.1l-.7-.4v-.1l-.7-.4v.1l-.7-.4v-.1l-.7-.4v.1l-.7-.4v-.1l-.7-.4v.1l-.7-.4v-.1l-.7-.4v.1l-.7-.4v-.1l-.7-.4v.1l-.7-.4v-.1l-.7-.4v.1l-.7-.4v-.1l-.7-.4v.1l-.7-.4v-.1l-.7-.4v.1l-.7-.4v-.1l-.7-.4v.1l-.7-.4v-.1l-.7-.4v.1l-.7-.4v-.1l-.7-.4v.1l-.7-.4v-.1l-.7-.4v.1l-.7-.4v-.1l-.7-.4v.1l-.7-.4v-.1l-.7-.4v.1l-.7-.4v-.1l-.7-.4v.1l-.7-.4v-.1l-.7-.4v.1l-.7-.4v-.1l-.7-.4v.1l-.7-.4v-.1l-.7-.4v.1l-.7-.4v-.1l-.4-.6v.1l-.7-.4v-.1l-.7-.4v.1l-.7-.4v-.1l-.7-.4v.1l-.7-.4v-.1l-.7-.4v.1l-.7-.4v-.1l-.7-.4v.1l-.7-.4v-.1l-.7-.4v.1l-.7-.4v-.1l-.7-.4v.1l-.7-.4v-.1l-.7-.4v.1l-.7-.4v-.1l-.7-.4v.1l-.7-.4v-.1l-.3-.2v-.3h-.1v-.8h.1v-.8h-.1v-.8h.1v-.8h-.1v-.8h.1v-.8h-.1v-.8h.1v-.8h-.1v-.8h.1v-.8h-.1v-.8h.1v-.8h-.1v-.8h.1v-.8h-.1v-.8h.1v-.7h-.1v-.8h.1v-.8h-.1v-.8h.1v-.8h-.1v-.8h.1v-.8h-.1v-.8h.1v-.8h-.1v-.8h.1v-.8h-.1v-.8h.1v-.8h-.1v-.8h.1v-.8h-.1v-.8h.1v-.8h-.1v-.8h.1v-.8h-.1v-.8h.1v-.8h-.1v-.8h.1v-.8h-.1v-.8h.1v-.8h-.1v-.8h.1v-.8h-.1v-.8h.1v-.8h-.1v-.8h.1v-.8h-.1v-.8h.1v-.8h-.1v-.8h.1v-.8h-.1v-.8h.1v-.8h-.1v-.8h.1v-.8h-.1v-.8h.1v-.8h-.1v-.8h.1v-.8h-.1v-.8h.1v-.6h-.1v-.8h.1v-.8h-.1v-.8h.1v-.8h-.1v-.8h.1v-.6c0-.1.1-.1.2-.1v.1h.1l.3.2v-.1l.7.4v.1l.7.4v-.1l.7.4v.1l.7.4v-.1l.7.4v.1l.7.4h0l.7.4v.1l.7.4v-.1l.7.4v.1l.7.4v-.1l.6.4v.1l.7.4v-.1l.7.4v.1l.7.4v-.1l.7.4v.1l.7.4v-.1l.7.4v.1l.7.4v-.1l.7.4v.1l.7.4v-.1l.7.4v.1l.7.4v-.1l.7.4v.1l.7.4v-.1l.7.4v.1l.7.4v-.1l.7.4v.1l.7.4v-.1l.7.4v.1l.7.4v-.1l.7.4v.1l.7.4v-.1l.7.4v.1l.7.4v-.1l.7.4v.1l.7.4v-.1l.7.4v.1l.7.4v-.1l.7.4v.1l.7.4v-.1l.7.4v.1l.7.4v-.1l.7.4v.2l.7.4v-.1l.7.4v.1l.7.4v-.1l.7.4v.1l.7.4v-.1l.7.4v.1l.7.4v-.1l.7.4v.1l.7.4v-.1l.7.4v.1l.7.4v-.1l.7.4v.1l.7.4v-.1l.7.4v.1l.7.4v-.1l.7.4v.1l.7.4v-.1l.7.4v.1l.7.4v-.1l.7.4v.1l.7.4v-.1l.7.4v.1l.7.4v-.1l.7.4v.1l.7.4h0l.7.4v.1l.7.4v-.1l.7.4v.1l.7.4v-.1l.7.4h0l.7.4v-.1l.7.4v.1l.7.4v-.1l.7.4v.1l.7.4h0l.7.4v.1l.7.4v-.1l.7.4v.1l.7.4v-.1l.7.4v.1l.7.4v-.1l.7.4v.1l.7.4v-.1l.7.4v.1l.7.4v-.1l.7.4v.1l.7.4v-.1l.7.4v.1l.7.4v-.1l.7.4v.1l.7.4v-.1l.7.4v.1l.7.4v-.1l.7.4v.1l.7.4v-.1l.7.4v.1l.7.4v-.1l.7.4v.1l.7.4v-.1l.7.4v.1l.7.4v-.1l.7.4v.1l.7.4v-.1l.7.4v.1l.7.4v-.1l.7.4v.1l.7.4v-.1l.7.4v.1l.7.4v-.1l.7.4v.1l.7.4v-.1l.7.4v.1l.7.4v-.1l.7.4v.1l.7.4v-.1l.7.4v.1l.7.4v-.1l.7.4v.1l.7.4v-.1l.7.4v.1l.7.4v-.1l.7.4v.1l.7.4v-.1l.7.4v.1l.7.4v-.1l.7.4v.1l.7.4v-.1l.7.4v.1l.7.4v-.1l.7.4v.1l.7.4v-.1l.7.4v.1l.7.4v-.1l.7.4v.1l.7.4v-.1l.7.4v.1l.3.2s.1,0,.1.1c.1.1.1.2.2.3v.5h.1v.8h-.1v.8h.1v.8h-.1v.8h.1v.8h-.1v.8h.1v.8h-.1v.8h.1v.8h-.1v.8h.1v.8h-.1v.8h.1v.8h-.1v.8h.1v.8h-.1v.8h.1v.8h-.1v.8h.1v.8h-.1v.8h.1v.8h-.1v.8h.1v.8h-.1v.8h.1v.8h-.1v.8h.1v.8h-.1v.8h.1v.8h-.1v.8h.1v.8h-.1v.8h.1v.8h-.1v.8h.1v.8h-.1v.8h.1v.8h-.1v.8h.1v.8h-.1v.8h.1v.8h-.1v.8h.1v.8h-.1v.8h.1v.8h-.1v.8h.1v.8h-.1v.8h.1v.8h-.1v.8h.1v.8h-.1v.8h.1v.8h-.1v.8h.1v.8h-.1v.8h.1v.8h-.1v.8h.1v.8h-.1v.8h.1v.8h-.1v.8h.1v.8h-.1v.8h.1l-.9-.6Z"/><path class="cls-29" d="m126.5,93c.1-.2.1-.4.1-.6,0-1-.7-2.3-1.6-2.8-.3-.2-.6-.3-.9-.2-.5-1.2-1.4-2.4-2.4-2.9-1.5-.9-2.7-.2-2.7,1.6v.2c-1-.2-1.6.5-1.6,1.7,0,1.6,1.1,3.5,2.5,4.2l6.3,3.6c1.2.7,2.2.1,2.2-1.3-.2-1.4-.9-2.7-1.9-3.5Zm-2.4-.1l-.2.1c-.2.1-.4-.1-.6-.4l-.5-1v2.5c0,.3-.2.4-.4.2l-.3-.2c-.2-.1-.4-.5-.4-.7v-2.5l-.6.4c-.2.1-.4,0-.6-.3l-.2-.3c-.2-.3-.2-.6,0-.7l1.6-.9c.2-.1.4.1.6.3l1.6,2.7c.2.4.2.7,0,.8Z"/><path class="cls-29" d="m127.7,124.2l-15.6-9c-.8-.5-1.5-1.7-1.5-2.8v-1c0-1.1.6-1.6,1.5-1.1l15.6,9c.8.5,1.5,1.7,1.5,2.8v1c0,1.1-.6,1.6-1.5,1.1Z"/><path class="cls-33" d="m130.6,124.1l1,7.1,4.1-2.1-5.1-5Z"/><path class="cls-33" d="m133.8,129.2l-.9.5,1.9,3.7.9-.5-1.9-3.7Z"/><path class="cls-12" d="m181.8,205.5c-3.4-6.6-20.9-6-24.8-.1-.3.4-.3.9-.1,1.3,2.6,4.7,5.3,10.5,7.6,15.1v.1c3.8-3,11.8-8.7,16.4-12.4,1.1-1,1.6-2.7.9-4Z"/><path class="cls-13" d="m161.2,198.8c-1.8-3.4-10.8-3.1-12.9,0-.1.2-.1.5,0,.7,1.4,2.5,2.7,5.5,3.9,7.8,2-1.6,6.1-4.5,8.5-6.5.7-.5.9-1.3.5-2Z"/><path class="cls-20" d="m156.3,185.2l3.9,6.7,3.9,6.8h-15.6l3.9-6.8,3.9-6.7Z"/><path class="cls-20" d="m156.3,201.8c4.2,0,7.7-1.3,7.7-3,0-1.6-3.4-3-7.7-3s-7.7,1.3-7.7,3,3.5,3,7.7,3Z"/><path class="cls-15" d="m164.1,198.6l-3.9-6.8-3.8-6.7s.3,3.5.1,10.4c-.1,3.2,0,6.2,0,6.2,4.2,0,7.1-1,7.5-2.9.1-.1.1-.2.1-.2Z"/><path class="cls-20" d="m169.4,184.5l6.2,10.8,6.2,10.8h-24.8l6.2-10.8,6.2-10.8Z"/><path class="cls-20" d="m169.4,211c6.8,0,12.2-2.1,12.2-4.8s-5.5-4.8-12.2-4.8-12.2,2.1-12.2,4.8,5.4,4.8,12.2,4.8Z"/><path class="cls-15" d="m181.8,205.9l-6.2-10.8-6.1-10.6s.5,5.6.2,16.5c-.1,5,0,10,0,10,6.7,0,11.3-1.6,12-4.6,0-.3.1-.5.1-.5Z"/><path class="cls-30" d="m120.6,66.6l-25.4-14.1-.1-1.9,25.4,14.1.1,1.9Z"/><path class="cls-22" d="m167.7,130.1l-86-50.1-.1-2.3,86.2,50.1-.1,2.3Z"/><path class="cls-22" d="m150.7,125.3l-52-30.4v-1.9l52,29.9v2.4Z"/><path class="cls-1" d="m110,179.5l-77.1-44-.1-95.8,77.2,42.5v97.3Z"/><path class="cls-3" d="m104.8,182.4l-77.5-42.3V42.5l77.5,42.5v97.4Z"/><path class="cls-14" d="m49.8,103.9l16.6-2.9c1.1-.2,2.2,0,3.1.5l12.1,7c1.9,1.2,1.3,4.1-.7,5.1l-15.5,9.5c-3.9,2.4-8.9,2.5-12.9.1l-10.6-6c-.9-.5-1.3-1.7-.8-2.7l4.9-8.6,3.8-2Z"/><path class="cls-23" d="m66.4,105.4c1.2,0,2.2-.6,2.2-1.3s-1-1.3-2.2-1.3-2.2.6-2.2,1.3,1,1.3,2.2,1.3Z"/><path class="cls-23" d="m51.6,108.1c1.2,0,2.2-.6,2.2-1.3s-1-1.3-2.2-1.3-2.2.6-2.2,1.3c0,.8,1,1.3,2.2,1.3Z"/><path class="cls-23" d="m46.8,116.7c1.2,0,2.2-.6,2.2-1.3s-1-1.3-2.2-1.3-2.2.6-2.2,1.3,1,1.3,2.2,1.3Z"/><path class="cls-23" d="m56.5,122.4c.6,0,1.1-.3,1.1-.6s-.5-.6-1.1-.6-1.1.3-1.1.6c.1.3.6.6,1.1.6Z"/><path class="cls-23" d="m77.2,110.4c.6,0,1.1-.3,1.1-.6s-.5-.6-1.1-.6-1.1.3-1.1.6.5.6,1.1.6Z"/><path class="cls-23" d="m62.4,120.2c6.6,0,12-3.1,12-6.9s-5.4-6.9-12-6.9-12,3.1-12,6.9,5.4,6.9,12,6.9Z"/><path class="cls-32" d="m65.1,106.6v13.4c5.3-.7,9.3-3.4,9.3-6.7s-4-6-9.3-6.7Z"/><path class="cls-32" d="m66.4,102.9l-.1,2.6h.1c1.2,0,2.2-.6,2.2-1.3s-.9-1.3-2.2-1.3Z"/><path class="cls-32" d="m51.5,105.6l-.1,2.6h.1c1.2,0,2.2-.6,2.2-1.3s-1-1.3-2.2-1.3Z"/><path class="cls-32" d="m46.8,114.1q-.1,0,0,0l-.1,2.6h.1c1.2,0,2.2-.6,2.2-1.3s-1-1.3-2.2-1.3Z"/><path class="cls-32" d="m56.5,121.2v1.2c.6,0,1.1-.3,1.1-.6,0-.4-.5-.6-1.1-.6Z"/><path class="cls-32" d="m77.2,109.1v1.2c.6,0,1.1-.3,1.1-.6s-.5-.6-1.1-.6Z"/><path class="cls-21" d="m58.1,143.9c-.9,0-4.8-.8-4.8-1.6l-.1-18.7s.9.4,1.7.7c.5.2,1.3.5,3.4.6,2.9.1,4.1-.5,4.1-.5.9-.2.6,0,1.4-.5v18.4c0,1-4.7,1.6-5.7,1.6Z"/><path class="cls-35" d="m42,117.2v18.8l11.2,6.5v-18.9l-11.2-6.4Z"/><path class="cls-35" d="m41,115.6v19.1c0,.2.1.3.2.4l.8.8v-18.8s-.5-.4-.6-.6c-.2-.1-.4-.9-.4-.9Z"/><path class="cls-32" d="m63.9,124l16.7-10v18.8l-16.8,9.8.1-18.6Z"/><path class="cls-32" d="m82.8,110.6v19.3c0,.8-.4,1.6-1,2.1l-1.2.9v-18.9s.8-.4,1.1-.8c.3-.4.7-.7.9-1.2.2-.6.2-1.4.2-1.4Z"/><path class="cls-28" d="m83.8,108.9l-.3.5,13.1,7.4.3-.5-13.1-7.4Z"/><path class="cls-28" d="m96.3,164l-32.5-18.6.3-.5,32.5,18.7-.3.4Z"/><path class="cls-28" d="m84.2,109.4h-.6v-5.4h.6v5.4Z"/><path class="cls-28" d="m41.4,80.7v.7l42.8,23.4v-.7l-42.8-23.4Z"/><path class="cls-24" d="m41.4,69.3v.6l42.8,23.4v-.7l-42.8-23.3Z"/><path class="cls-24" d="m41.4,71.4v.7l42.8,23.4v-.7l-42.8-23.4Z"/><path class="cls-24" d="m41.4,73.8v.7l20.6,11.3.1-.6-20.7-11.4Z"/><path class="cls-26" d="m94.6,118.7l-3.6-2v-1.4l3.6,2v1.4Z"/><path class="cls-26" d="m94.4,120.7l-3.6-2v-1.4l3.6,2v1.4Z"/><path class="cls-26" d="m94.3,125l-6.8-3.9.2-3,6.8,3.9-.2,3Z"/><path class="cls-6" d="m74.8,113.8h-1.2v-.6h1.2v.6Zm-3.7.1h-2.5v-.6h2.5v.6Zm-4.9.1h-2.5v-.6h2.5v.6Zm-4.9.1h-2.5v-.6h2.5v.6Zm-4.9.1h-2.5v-.6h2.5v.6Zm-5,.1h-1.2v-.6h1.2v.6Z"/><path class="cls-6" d="m61.9,108v-1.2h.6v1.2h-.6Zm0,4.9v-2.4h.6v2.4h-.6Zm.1,4.9v-2.4h.6v2.4h-.6Zm0,3.6v-1.2h.6v1.2h-.6Z"/><path class="cls-17" d="m63.9,106.4h-3.5v.6h3.5v-.6Z"/><path class="cls-17" d="m64,120.7h-3.5v.6h3.5v-.6Z"/><path class="cls-17" d="m50.3,115.7h-.6l.1-3.4h.6l-.1,3.4Z"/><path class="cls-17" d="m74.8,115.4l-.1-3.4h.6l.1,3.4h-.6Z"/><path class="cls-28" d="m41.4,81.2h-.6v34.6h.6v-34.6Z"/><path class="cls-28" d="m31,110.4l-.3.5,10.5,5.2.3-.5-10.5-5.2Z"/><path class="cls-28" d="m30.5,129.5l-.3.5,10.5,5.2.3-.5-10.5-5.2Z"/><path class="cls-5" d="m34.9,113v-.3h.6v.3h-.6Zm0,.5v-.3h.6v.3h-.6Z"/><path class="cls-5" d="m35.4,115.4v2.7h-.6v-2.7h.6Zm0,4.6v5.4h-.6v-5.4h.6Zm0,7.2v2.7h-.6v-2.7h.6Z"/><path class="cls-5" d="m34.8,131.2v-.4h.6v.3h-.6v.1Zm0,.5v-.3h.6v.3h-.6Z"/><path class="cls-26" d="m46,87.9l-3.6-2v-1.4l3.6,2v1.4Z"/><path class="cls-26" d="m46,89.9l-3.6-2v-1.4l3.6,2v1.4Z"/><path class="cls-28" d="m96,116.7l-.2,46.9h.6l.2-46.9h-.6Z"/><path class="cls-36" d="m41.4,67.2l-.1-5.6,42.9,23.5v5.6l-42.8-23.5Z"/></svg>